<svg width="25" height="24" viewBox="0 0 25 24" fill="none" xmlns="http://www.w3.org/2000/svg">
<path d="M8.868 4.78999L6.132 3.87699C5.83133 3.77684 5.51118 3.74958 5.19791 3.79745C4.88464 3.84532 4.58723 3.96694 4.33019 4.1523C4.07315 4.33766 3.86383 4.58145 3.71949 4.86357C3.57516 5.1457 3.49992 5.45808 3.5 5.77499V17.558C3.4999 17.9779 3.63198 18.3872 3.87752 18.7279C4.12305 19.0686 4.46959 19.3233 4.868 19.456L8.868 20.789C9.27825 20.9256 9.72175 20.9256 10.132 20.789L14.868 19.211C15.2783 19.0743 15.7217 19.0743 16.132 19.211L18.868 20.123C19.1687 20.2232 19.489 20.2504 19.8023 20.2025C20.1157 20.1546 20.4132 20.0329 20.6702 19.8474C20.9273 19.6619 21.1366 19.418 21.2808 19.1357C21.4251 18.8535 21.5002 18.541 21.5 18.224V6.44199C21.5002 6.02218 21.3682 5.61296 21.1229 5.27231C20.8775 4.93166 20.5312 4.67685 20.133 4.54399L16.133 3.21099C15.7224 3.07412 15.2786 3.07412 14.868 3.21099L10.131 4.78899C9.72074 4.92563 9.27725 4.92563 8.867 4.78899L8.868 4.78999Z" stroke="#006FFD" stroke-width="2" stroke-linecap="round" stroke-linejoin="round"/>
<path d="M9.5 5V21M15.5 3V19" stroke="#006FFD" stroke-width="2" stroke-linejoin="round"/>
</svg>
